<mxfile host="app.diagrams.net" agent="Mozilla/5.0 (Windows NT 10.0; Win64; x64) AppleWebKit/537.36 (KHTML, like Gecko) Chrome/127.0.0.0 Safari/537.36" version="24.7.7">
  <diagram name="PÃ¡gina-1" id="5x0IPrHuoXclhHU6RkLq">
    <mxGraphModel dx="1707" dy="468" grid="1" gridSize="10" guides="1" tooltips="1" connect="1" arrows="1" fold="1" page="1" pageScale="1" pageWidth="827" pageHeight="1169" math="0" shadow="0">
      <root>
        <mxCell id="0" />
        <mxCell id="1" parent="0" />
        <mxCell id="gZBjiMjr5WNG0tJQ5jPf-13" style="edgeStyle=orthogonalEdgeStyle;shape=connector;curved=0;rounded=0;orthogonalLoop=1;jettySize=auto;html=1;exitX=1;exitY=0.5;exitDx=0;exitDy=0;entryX=0;entryY=0.5;entryDx=0;entryDy=0;strokeColor=default;align=center;verticalAlign=middle;fontFamily=Helvetica;fontSize=11;fontColor=default;labelBackgroundColor=default;endArrow=none;endFill=0;" edge="1" parent="1" source="gZBjiMjr5WNG0tJQ5jPf-1" target="gZBjiMjr5WNG0tJQ5jPf-2">
          <mxGeometry relative="1" as="geometry" />
        </mxCell>
        <mxCell id="gZBjiMjr5WNG0tJQ5jPf-1" value="Manobra" style="shape=rhombus;perimeter=rhombusPerimeter;whiteSpace=wrap;html=1;align=center;" vertex="1" parent="1">
          <mxGeometry x="800" y="230" width="120" height="60" as="geometry" />
        </mxCell>
        <mxCell id="gZBjiMjr5WNG0tJQ5jPf-5" style="edgeStyle=orthogonalEdgeStyle;rounded=0;orthogonalLoop=1;jettySize=auto;html=1;exitX=0.5;exitY=1;exitDx=0;exitDy=0;curved=0;strokeColor=none;" edge="1" parent="1" source="gZBjiMjr5WNG0tJQ5jPf-2" target="gZBjiMjr5WNG0tJQ5jPf-1">
          <mxGeometry relative="1" as="geometry" />
        </mxCell>
        <mxCell id="gZBjiMjr5WNG0tJQ5jPf-7" style="shape=connector;rounded=0;orthogonalLoop=1;jettySize=auto;html=1;exitX=0.25;exitY=1;exitDx=0;exitDy=0;strokeColor=default;align=center;verticalAlign=middle;fontFamily=Helvetica;fontSize=11;fontColor=default;labelBackgroundColor=default;endArrow=none;endFill=0;" edge="1" parent="1" source="gZBjiMjr5WNG0tJQ5jPf-2" target="gZBjiMjr5WNG0tJQ5jPf-3">
          <mxGeometry relative="1" as="geometry" />
        </mxCell>
        <mxCell id="gZBjiMjr5WNG0tJQ5jPf-12" style="edgeStyle=orthogonalEdgeStyle;shape=connector;curved=0;rounded=0;orthogonalLoop=1;jettySize=auto;html=1;exitX=0.75;exitY=1;exitDx=0;exitDy=0;entryX=0.5;entryY=0;entryDx=0;entryDy=0;strokeColor=default;align=center;verticalAlign=middle;fontFamily=Helvetica;fontSize=11;fontColor=default;labelBackgroundColor=default;endArrow=none;endFill=0;" edge="1" parent="1" source="gZBjiMjr5WNG0tJQ5jPf-2" target="gZBjiMjr5WNG0tJQ5jPf-11">
          <mxGeometry relative="1" as="geometry" />
        </mxCell>
        <mxCell id="gZBjiMjr5WNG0tJQ5jPf-2" value="Vagas" style="whiteSpace=wrap;html=1;align=center;" vertex="1" parent="1">
          <mxGeometry x="940" y="240" width="100" height="40" as="geometry" />
        </mxCell>
        <mxCell id="gZBjiMjr5WNG0tJQ5jPf-3" value="numero" style="ellipse;whiteSpace=wrap;html=1;align=center;" vertex="1" parent="1">
          <mxGeometry x="880" y="310" width="60" height="50" as="geometry" />
        </mxCell>
        <mxCell id="gZBjiMjr5WNG0tJQ5jPf-14" style="edgeStyle=orthogonalEdgeStyle;shape=connector;curved=0;rounded=0;orthogonalLoop=1;jettySize=auto;html=1;exitX=1;exitY=0.5;exitDx=0;exitDy=0;entryX=0;entryY=0.5;entryDx=0;entryDy=0;strokeColor=default;align=center;verticalAlign=middle;fontFamily=Helvetica;fontSize=11;fontColor=default;labelBackgroundColor=default;endArrow=none;endFill=0;" edge="1" parent="1" source="gZBjiMjr5WNG0tJQ5jPf-8" target="gZBjiMjr5WNG0tJQ5jPf-1">
          <mxGeometry relative="1" as="geometry" />
        </mxCell>
        <mxCell id="gZBjiMjr5WNG0tJQ5jPf-22" style="shape=connector;rounded=0;orthogonalLoop=1;jettySize=auto;html=1;exitX=0;exitY=1;exitDx=0;exitDy=0;entryX=1;entryY=0.5;entryDx=0;entryDy=0;strokeColor=default;align=center;verticalAlign=middle;fontFamily=Helvetica;fontSize=11;fontColor=default;labelBackgroundColor=default;endArrow=none;endFill=0;" edge="1" parent="1" source="gZBjiMjr5WNG0tJQ5jPf-8" target="gZBjiMjr5WNG0tJQ5jPf-21">
          <mxGeometry relative="1" as="geometry" />
        </mxCell>
        <mxCell id="gZBjiMjr5WNG0tJQ5jPf-23" style="shape=connector;rounded=0;orthogonalLoop=1;jettySize=auto;html=1;exitX=0;exitY=0;exitDx=0;exitDy=0;entryX=1;entryY=0.5;entryDx=0;entryDy=0;strokeColor=default;align=center;verticalAlign=middle;fontFamily=Helvetica;fontSize=11;fontColor=default;labelBackgroundColor=default;endArrow=none;endFill=0;" edge="1" parent="1" source="gZBjiMjr5WNG0tJQ5jPf-8" target="gZBjiMjr5WNG0tJQ5jPf-20">
          <mxGeometry relative="1" as="geometry" />
        </mxCell>
        <mxCell id="gZBjiMjr5WNG0tJQ5jPf-8" value="Manobrista" style="whiteSpace=wrap;html=1;align=center;fontFamily=Helvetica;fontSize=11;fontColor=default;labelBackgroundColor=default;" vertex="1" parent="1">
          <mxGeometry x="680" y="240" width="100" height="40" as="geometry" />
        </mxCell>
        <mxCell id="gZBjiMjr5WNG0tJQ5jPf-15" style="edgeStyle=orthogonalEdgeStyle;shape=connector;curved=0;rounded=0;orthogonalLoop=1;jettySize=auto;html=1;exitX=1;exitY=0.5;exitDx=0;exitDy=0;entryX=0;entryY=0.5;entryDx=0;entryDy=0;strokeColor=default;align=center;verticalAlign=middle;fontFamily=Helvetica;fontSize=11;fontColor=default;labelBackgroundColor=default;endArrow=none;endFill=0;" edge="1" parent="1" source="gZBjiMjr5WNG0tJQ5jPf-53" target="gZBjiMjr5WNG0tJQ5jPf-8">
          <mxGeometry relative="1" as="geometry">
            <mxPoint x="420" y="260" as="sourcePoint" />
          </mxGeometry>
        </mxCell>
        <mxCell id="gZBjiMjr5WNG0tJQ5jPf-50" style="edgeStyle=orthogonalEdgeStyle;shape=connector;curved=0;rounded=0;orthogonalLoop=1;jettySize=auto;html=1;exitX=0;exitY=0.5;exitDx=0;exitDy=0;entryX=1;entryY=0.5;entryDx=0;entryDy=0;strokeColor=default;align=center;verticalAlign=middle;fontFamily=Helvetica;fontSize=11;fontColor=default;labelBackgroundColor=default;endArrow=none;endFill=0;" edge="1" parent="1" source="gZBjiMjr5WNG0tJQ5jPf-10" target="gZBjiMjr5WNG0tJQ5jPf-40">
          <mxGeometry relative="1" as="geometry" />
        </mxCell>
        <mxCell id="gZBjiMjr5WNG0tJQ5jPf-10" value="Cliente" style="whiteSpace=wrap;html=1;align=center;fontFamily=Helvetica;fontSize=11;fontColor=default;labelBackgroundColor=default;" vertex="1" parent="1">
          <mxGeometry x="110" y="200" width="100" height="40" as="geometry" />
        </mxCell>
        <mxCell id="gZBjiMjr5WNG0tJQ5jPf-11" value="Status" style="ellipse;whiteSpace=wrap;html=1;align=center;fontFamily=Helvetica;fontSize=11;fontColor=default;labelBackgroundColor=default;" vertex="1" parent="1">
          <mxGeometry x="990" y="320" width="50" height="40" as="geometry" />
        </mxCell>
        <mxCell id="gZBjiMjr5WNG0tJQ5jPf-62" style="shape=connector;rounded=0;orthogonalLoop=1;jettySize=auto;html=1;exitX=1;exitY=0.5;exitDx=0;exitDy=0;strokeColor=default;align=center;verticalAlign=middle;fontFamily=Helvetica;fontSize=11;fontColor=default;labelBackgroundColor=default;endArrow=none;endFill=0;entryX=0;entryY=0.5;entryDx=0;entryDy=0;" edge="1" parent="1" source="gZBjiMjr5WNG0tJQ5jPf-17" target="gZBjiMjr5WNG0tJQ5jPf-59">
          <mxGeometry relative="1" as="geometry" />
        </mxCell>
        <mxCell id="gZBjiMjr5WNG0tJQ5jPf-17" value="Cliente Vip" style="whiteSpace=wrap;html=1;align=center;fontFamily=Helvetica;fontSize=11;fontColor=default;labelBackgroundColor=default;" vertex="1" parent="1">
          <mxGeometry x="110" y="280" width="100" height="40" as="geometry" />
        </mxCell>
        <mxCell id="gZBjiMjr5WNG0tJQ5jPf-24" style="shape=connector;rounded=0;orthogonalLoop=1;jettySize=auto;html=1;exitX=0;exitY=0.5;exitDx=0;exitDy=0;entryX=1;entryY=0.5;entryDx=0;entryDy=0;strokeColor=default;align=center;verticalAlign=middle;fontFamily=Helvetica;fontSize=11;fontColor=default;labelBackgroundColor=default;endArrow=none;endFill=0;" edge="1" parent="1" source="gZBjiMjr5WNG0tJQ5jPf-20" target="gZBjiMjr5WNG0tJQ5jPf-10">
          <mxGeometry relative="1" as="geometry" />
        </mxCell>
        <mxCell id="gZBjiMjr5WNG0tJQ5jPf-20" value="Comprovante Norm." style="shape=rhombus;perimeter=rhombusPerimeter;whiteSpace=wrap;html=1;align=center;fontFamily=Helvetica;fontSize=11;fontColor=default;labelBackgroundColor=default;" vertex="1" parent="1">
          <mxGeometry x="260" y="150" width="120" height="60" as="geometry" />
        </mxCell>
        <mxCell id="gZBjiMjr5WNG0tJQ5jPf-25" style="shape=connector;rounded=0;orthogonalLoop=1;jettySize=auto;html=1;exitX=0;exitY=0.5;exitDx=0;exitDy=0;entryX=1;entryY=0.5;entryDx=0;entryDy=0;strokeColor=default;align=center;verticalAlign=middle;fontFamily=Helvetica;fontSize=11;fontColor=default;labelBackgroundColor=default;endArrow=none;endFill=0;" edge="1" parent="1" source="gZBjiMjr5WNG0tJQ5jPf-21" target="gZBjiMjr5WNG0tJQ5jPf-17">
          <mxGeometry relative="1" as="geometry" />
        </mxCell>
        <mxCell id="gZBjiMjr5WNG0tJQ5jPf-21" value="Comprovante Vip" style="shape=rhombus;perimeter=rhombusPerimeter;whiteSpace=wrap;html=1;align=center;fontFamily=Helvetica;fontSize=11;fontColor=default;labelBackgroundColor=default;" vertex="1" parent="1">
          <mxGeometry x="260" y="310" width="120" height="60" as="geometry" />
        </mxCell>
        <mxCell id="gZBjiMjr5WNG0tJQ5jPf-35" style="shape=connector;rounded=0;orthogonalLoop=1;jettySize=auto;html=1;exitX=1;exitY=0;exitDx=0;exitDy=0;entryX=0;entryY=1;entryDx=0;entryDy=0;strokeColor=default;align=center;verticalAlign=middle;fontFamily=Helvetica;fontSize=11;fontColor=default;labelBackgroundColor=default;endArrow=none;endFill=0;" edge="1" parent="1" source="gZBjiMjr5WNG0tJQ5jPf-26" target="gZBjiMjr5WNG0tJQ5jPf-21">
          <mxGeometry relative="1" as="geometry" />
        </mxCell>
        <mxCell id="gZBjiMjr5WNG0tJQ5jPf-26" value="Carro" style="ellipse;whiteSpace=wrap;html=1;align=center;fontFamily=Helvetica;fontSize=11;fontColor=default;labelBackgroundColor=default;" vertex="1" parent="1">
          <mxGeometry x="200" y="360" width="50" height="40" as="geometry" />
        </mxCell>
        <mxCell id="gZBjiMjr5WNG0tJQ5jPf-32" style="shape=connector;rounded=0;orthogonalLoop=1;jettySize=auto;html=1;exitX=1;exitY=1;exitDx=0;exitDy=0;entryX=0;entryY=0;entryDx=0;entryDy=0;strokeColor=default;align=center;verticalAlign=middle;fontFamily=Helvetica;fontSize=11;fontColor=default;labelBackgroundColor=default;endArrow=none;endFill=0;" edge="1" parent="1" source="gZBjiMjr5WNG0tJQ5jPf-27" target="gZBjiMjr5WNG0tJQ5jPf-20">
          <mxGeometry relative="1" as="geometry" />
        </mxCell>
        <mxCell id="gZBjiMjr5WNG0tJQ5jPf-27" value="Carro" style="ellipse;whiteSpace=wrap;html=1;align=center;fontFamily=Helvetica;fontSize=11;fontColor=default;labelBackgroundColor=default;" vertex="1" parent="1">
          <mxGeometry x="200" y="120" width="50" height="50" as="geometry" />
        </mxCell>
        <mxCell id="gZBjiMjr5WNG0tJQ5jPf-33" style="shape=connector;rounded=0;orthogonalLoop=1;jettySize=auto;html=1;exitX=0.5;exitY=1;exitDx=0;exitDy=0;entryX=0.5;entryY=0;entryDx=0;entryDy=0;strokeColor=default;align=center;verticalAlign=middle;fontFamily=Helvetica;fontSize=11;fontColor=default;labelBackgroundColor=default;endArrow=none;endFill=0;" edge="1" parent="1" source="gZBjiMjr5WNG0tJQ5jPf-28" target="gZBjiMjr5WNG0tJQ5jPf-20">
          <mxGeometry relative="1" as="geometry" />
        </mxCell>
        <mxCell id="gZBjiMjr5WNG0tJQ5jPf-28" value="Hora(entrada e saida)" style="ellipse;whiteSpace=wrap;html=1;align=center;fontFamily=Helvetica;fontSize=11;fontColor=default;labelBackgroundColor=default;" vertex="1" parent="1">
          <mxGeometry x="200" y="50" width="100" height="40" as="geometry" />
        </mxCell>
        <mxCell id="gZBjiMjr5WNG0tJQ5jPf-37" style="shape=connector;rounded=0;orthogonalLoop=1;jettySize=auto;html=1;exitX=0.5;exitY=0;exitDx=0;exitDy=0;entryX=1;entryY=1;entryDx=0;entryDy=0;strokeColor=default;align=center;verticalAlign=middle;fontFamily=Helvetica;fontSize=11;fontColor=default;labelBackgroundColor=default;endArrow=none;endFill=0;" edge="1" parent="1" source="gZBjiMjr5WNG0tJQ5jPf-29" target="gZBjiMjr5WNG0tJQ5jPf-21">
          <mxGeometry relative="1" as="geometry" />
        </mxCell>
        <mxCell id="gZBjiMjr5WNG0tJQ5jPf-29" value="Numero Vaga" style="ellipse;whiteSpace=wrap;html=1;align=center;fontFamily=Helvetica;fontSize=11;fontColor=default;labelBackgroundColor=default;" vertex="1" parent="1">
          <mxGeometry x="320" y="400" width="100" height="40" as="geometry" />
        </mxCell>
        <mxCell id="gZBjiMjr5WNG0tJQ5jPf-36" style="shape=connector;rounded=0;orthogonalLoop=1;jettySize=auto;html=1;exitX=1;exitY=0;exitDx=0;exitDy=0;entryX=0.5;entryY=1;entryDx=0;entryDy=0;strokeColor=default;align=center;verticalAlign=middle;fontFamily=Helvetica;fontSize=11;fontColor=default;labelBackgroundColor=default;endArrow=none;endFill=0;" edge="1" parent="1" source="gZBjiMjr5WNG0tJQ5jPf-30" target="gZBjiMjr5WNG0tJQ5jPf-21">
          <mxGeometry relative="1" as="geometry" />
        </mxCell>
        <mxCell id="gZBjiMjr5WNG0tJQ5jPf-30" value="Hora(entrada e saida)" style="ellipse;whiteSpace=wrap;html=1;align=center;fontFamily=Helvetica;fontSize=11;fontColor=default;labelBackgroundColor=default;" vertex="1" parent="1">
          <mxGeometry x="220" y="420" width="100" height="40" as="geometry" />
        </mxCell>
        <mxCell id="gZBjiMjr5WNG0tJQ5jPf-44" style="shape=connector;rounded=0;orthogonalLoop=1;jettySize=auto;html=1;exitX=0.5;exitY=1;exitDx=0;exitDy=0;entryX=0.5;entryY=0;entryDx=0;entryDy=0;strokeColor=default;align=center;verticalAlign=middle;fontFamily=Helvetica;fontSize=11;fontColor=default;labelBackgroundColor=default;endArrow=none;endFill=0;" edge="1" parent="1" source="gZBjiMjr5WNG0tJQ5jPf-31" target="gZBjiMjr5WNG0tJQ5jPf-20">
          <mxGeometry relative="1" as="geometry" />
        </mxCell>
        <mxCell id="gZBjiMjr5WNG0tJQ5jPf-31" value="Numero Vaga" style="ellipse;whiteSpace=wrap;html=1;align=center;fontFamily=Helvetica;fontSize=11;fontColor=default;labelBackgroundColor=default;" vertex="1" parent="1">
          <mxGeometry x="320" y="50" width="100" height="40" as="geometry" />
        </mxCell>
        <mxCell id="gZBjiMjr5WNG0tJQ5jPf-38" value="Empresa" style="whiteSpace=wrap;html=1;align=center;fontFamily=Helvetica;fontSize=11;fontColor=default;labelBackgroundColor=default;" vertex="1" parent="1">
          <mxGeometry x="-180" y="240" width="100" height="40" as="geometry" />
        </mxCell>
        <mxCell id="gZBjiMjr5WNG0tJQ5jPf-48" style="shape=connector;rounded=0;orthogonalLoop=1;jettySize=auto;html=1;exitX=0;exitY=0.5;exitDx=0;exitDy=0;entryX=1;entryY=0.5;entryDx=0;entryDy=0;strokeColor=default;align=center;verticalAlign=middle;fontFamily=Helvetica;fontSize=11;fontColor=default;labelBackgroundColor=default;endArrow=none;endFill=0;" edge="1" parent="1" source="gZBjiMjr5WNG0tJQ5jPf-39" target="gZBjiMjr5WNG0tJQ5jPf-38">
          <mxGeometry relative="1" as="geometry" />
        </mxCell>
        <mxCell id="gZBjiMjr5WNG0tJQ5jPf-49" style="edgeStyle=orthogonalEdgeStyle;shape=connector;curved=0;rounded=0;orthogonalLoop=1;jettySize=auto;html=1;exitX=1;exitY=0.5;exitDx=0;exitDy=0;entryX=0;entryY=0.5;entryDx=0;entryDy=0;strokeColor=default;align=center;verticalAlign=middle;fontFamily=Helvetica;fontSize=11;fontColor=default;labelBackgroundColor=default;endArrow=none;endFill=0;" edge="1" parent="1" source="gZBjiMjr5WNG0tJQ5jPf-39" target="gZBjiMjr5WNG0tJQ5jPf-17">
          <mxGeometry relative="1" as="geometry" />
        </mxCell>
        <mxCell id="gZBjiMjr5WNG0tJQ5jPf-39" value="Valor Mensal" style="shape=rhombus;perimeter=rhombusPerimeter;whiteSpace=wrap;html=1;align=center;fontFamily=Helvetica;fontSize=11;fontColor=default;labelBackgroundColor=default;" vertex="1" parent="1">
          <mxGeometry x="-30" y="270" width="120" height="60" as="geometry" />
        </mxCell>
        <mxCell id="gZBjiMjr5WNG0tJQ5jPf-47" style="shape=connector;rounded=0;orthogonalLoop=1;jettySize=auto;html=1;exitX=0;exitY=0.5;exitDx=0;exitDy=0;entryX=1;entryY=0.5;entryDx=0;entryDy=0;strokeColor=default;align=center;verticalAlign=middle;fontFamily=Helvetica;fontSize=11;fontColor=default;labelBackgroundColor=default;endArrow=none;endFill=0;" edge="1" parent="1" source="gZBjiMjr5WNG0tJQ5jPf-40" target="gZBjiMjr5WNG0tJQ5jPf-38">
          <mxGeometry relative="1" as="geometry" />
        </mxCell>
        <mxCell id="gZBjiMjr5WNG0tJQ5jPf-40" value="Valor Comprovante" style="shape=rhombus;perimeter=rhombusPerimeter;whiteSpace=wrap;html=1;align=center;fontFamily=Helvetica;fontSize=11;fontColor=default;labelBackgroundColor=default;" vertex="1" parent="1">
          <mxGeometry x="-30" y="190" width="120" height="60" as="geometry" />
        </mxCell>
        <mxCell id="gZBjiMjr5WNG0tJQ5jPf-46" style="shape=connector;rounded=0;orthogonalLoop=1;jettySize=auto;html=1;exitX=0;exitY=0.5;exitDx=0;exitDy=0;entryX=1;entryY=0;entryDx=0;entryDy=0;strokeColor=default;align=center;verticalAlign=middle;fontFamily=Helvetica;fontSize=11;fontColor=default;labelBackgroundColor=default;endArrow=none;endFill=0;" edge="1" parent="1" source="gZBjiMjr5WNG0tJQ5jPf-41" target="gZBjiMjr5WNG0tJQ5jPf-20">
          <mxGeometry relative="1" as="geometry" />
        </mxCell>
        <mxCell id="gZBjiMjr5WNG0tJQ5jPf-41" value="Valor/hora" style="ellipse;whiteSpace=wrap;html=1;align=center;fontFamily=Helvetica;fontSize=11;fontColor=default;labelBackgroundColor=default;" vertex="1" parent="1">
          <mxGeometry x="420" y="80" width="100" height="40" as="geometry" />
        </mxCell>
        <mxCell id="gZBjiMjr5WNG0tJQ5jPf-51" value="Carro" style="whiteSpace=wrap;html=1;align=center;fontFamily=Helvetica;fontSize=11;fontColor=default;labelBackgroundColor=default;" vertex="1" parent="1">
          <mxGeometry x="400" y="240" width="100" height="40" as="geometry" />
        </mxCell>
        <mxCell id="gZBjiMjr5WNG0tJQ5jPf-54" style="edgeStyle=orthogonalEdgeStyle;shape=connector;curved=0;rounded=0;orthogonalLoop=1;jettySize=auto;html=1;exitX=0;exitY=0.5;exitDx=0;exitDy=0;entryX=1;entryY=0.5;entryDx=0;entryDy=0;strokeColor=default;align=center;verticalAlign=middle;fontFamily=Helvetica;fontSize=11;fontColor=default;labelBackgroundColor=default;endArrow=none;endFill=0;" edge="1" parent="1" source="gZBjiMjr5WNG0tJQ5jPf-53" target="gZBjiMjr5WNG0tJQ5jPf-51">
          <mxGeometry relative="1" as="geometry" />
        </mxCell>
        <mxCell id="gZBjiMjr5WNG0tJQ5jPf-57" style="shape=connector;rounded=0;orthogonalLoop=1;jettySize=auto;html=1;entryX=0.75;entryY=1;entryDx=0;entryDy=0;strokeColor=default;align=center;verticalAlign=middle;fontFamily=Helvetica;fontSize=11;fontColor=default;labelBackgroundColor=default;endArrow=none;endFill=0;" edge="1" parent="1" source="gZBjiMjr5WNG0tJQ5jPf-55" target="gZBjiMjr5WNG0tJQ5jPf-51">
          <mxGeometry relative="1" as="geometry" />
        </mxCell>
        <mxCell id="gZBjiMjr5WNG0tJQ5jPf-55" value="Placa" style="ellipse;whiteSpace=wrap;html=1;align=center;fontFamily=Helvetica;fontSize=11;fontColor=default;labelBackgroundColor=default;" vertex="1" parent="1">
          <mxGeometry x="430" y="340" width="50" height="40" as="geometry" />
        </mxCell>
        <mxCell id="gZBjiMjr5WNG0tJQ5jPf-53" value="Entrega" style="shape=rhombus;perimeter=rhombusPerimeter;whiteSpace=wrap;html=1;align=center;fontFamily=Helvetica;fontSize=11;fontColor=default;labelBackgroundColor=default;" vertex="1" parent="1">
          <mxGeometry x="520" y="230" width="120" height="60" as="geometry" />
        </mxCell>
        <mxCell id="gZBjiMjr5WNG0tJQ5jPf-60" style="edgeStyle=orthogonalEdgeStyle;shape=connector;curved=0;rounded=0;orthogonalLoop=1;jettySize=auto;html=1;exitX=1;exitY=0.5;exitDx=0;exitDy=0;entryX=0;entryY=0.5;entryDx=0;entryDy=0;strokeColor=default;align=center;verticalAlign=middle;fontFamily=Helvetica;fontSize=11;fontColor=default;labelBackgroundColor=default;endArrow=none;endFill=0;" edge="1" parent="1" source="gZBjiMjr5WNG0tJQ5jPf-59" target="gZBjiMjr5WNG0tJQ5jPf-51">
          <mxGeometry relative="1" as="geometry" />
        </mxCell>
        <mxCell id="gZBjiMjr5WNG0tJQ5jPf-61" style="shape=connector;rounded=0;orthogonalLoop=1;jettySize=auto;html=1;exitX=0;exitY=0.5;exitDx=0;exitDy=0;entryX=1;entryY=0.5;entryDx=0;entryDy=0;strokeColor=default;align=center;verticalAlign=middle;fontFamily=Helvetica;fontSize=11;fontColor=default;labelBackgroundColor=default;endArrow=none;endFill=0;" edge="1" parent="1" source="gZBjiMjr5WNG0tJQ5jPf-59" target="gZBjiMjr5WNG0tJQ5jPf-10">
          <mxGeometry relative="1" as="geometry" />
        </mxCell>
        <mxCell id="gZBjiMjr5WNG0tJQ5jPf-59" value="Entrega" style="shape=rhombus;perimeter=rhombusPerimeter;whiteSpace=wrap;html=1;align=center;fontFamily=Helvetica;fontSize=11;fontColor=default;labelBackgroundColor=default;" vertex="1" parent="1">
          <mxGeometry x="260" y="230" width="120" height="60" as="geometry" />
        </mxCell>
        <mxCell id="gZBjiMjr5WNG0tJQ5jPf-65" style="shape=connector;rounded=0;orthogonalLoop=1;jettySize=auto;html=1;exitX=0.5;exitY=0;exitDx=0;exitDy=0;entryX=0.75;entryY=1;entryDx=0;entryDy=0;strokeColor=default;align=center;verticalAlign=middle;fontFamily=Helvetica;fontSize=11;fontColor=default;labelBackgroundColor=default;endArrow=none;endFill=0;" edge="1" parent="1" source="gZBjiMjr5WNG0tJQ5jPf-63" target="gZBjiMjr5WNG0tJQ5jPf-51">
          <mxGeometry relative="1" as="geometry" />
        </mxCell>
        <mxCell id="gZBjiMjr5WNG0tJQ5jPf-63" value="Marca" style="ellipse;whiteSpace=wrap;html=1;align=center;fontFamily=Helvetica;fontSize=11;fontColor=default;labelBackgroundColor=default;" vertex="1" parent="1">
          <mxGeometry x="490" y="340" width="50" height="40" as="geometry" />
        </mxCell>
        <mxCell id="gZBjiMjr5WNG0tJQ5jPf-66" style="shape=connector;rounded=0;orthogonalLoop=1;jettySize=auto;html=1;exitX=0;exitY=0;exitDx=0;exitDy=0;entryX=0.75;entryY=1;entryDx=0;entryDy=0;strokeColor=default;align=center;verticalAlign=middle;fontFamily=Helvetica;fontSize=11;fontColor=default;labelBackgroundColor=default;endArrow=none;endFill=0;" edge="1" parent="1" source="gZBjiMjr5WNG0tJQ5jPf-64" target="gZBjiMjr5WNG0tJQ5jPf-51">
          <mxGeometry relative="1" as="geometry" />
        </mxCell>
        <mxCell id="gZBjiMjr5WNG0tJQ5jPf-64" value="Cor" style="ellipse;whiteSpace=wrap;html=1;align=center;fontFamily=Helvetica;fontSize=11;fontColor=default;labelBackgroundColor=default;" vertex="1" parent="1">
          <mxGeometry x="540" y="310" width="50" height="40" as="geometry" />
        </mxCell>
      </root>
    </mxGraphModel>
  </diagram>
</mxfile>
